<?xml version="1.0" encoding="utf-8"?>
<svg width="308px" height="65px" viewBox="0 0 308 65" version="1.1" xmlns:xlink="http://www.w3.org/1999/xlink" xmlns="http://www.w3.org/2000/svg">
  <defs>
    <filter filterUnits="userSpaceOnUse" color-interpolation-filters="sRGB" id="filter_1">
      <feFlood flood-opacity="0" result="BackgroundImageFix" />
      <feBlend mode="normal" in="SourceGraphic" in2="BackgroundImageFix" result="shape" />
      <feColorMatrix in="SourceAlpha" type="matrix" values="0 0 0 0 0 0 0 0 0 0 0 0 0 0 0 0 0 0 127 0" result="hardAlpha" />
      <feOffset dx="-1" dy="0" />
      <feGaussianBlur stdDeviation="1" />
      <feComposite in2="hardAlpha" operator="arithmetic" k2="-1" k3="1" />
      <feColorMatrix type="matrix" values="0 0 0 0 0.39215687 0 0 0 0 0.39215687 0 0 0 0 0.39215687 0 0 0 0.4 0" />
      <feBlend mode="normal" in2="shape" result="effect0_innerShadow" />
    </filter>
    <filter filterUnits="userSpaceOnUse" color-interpolation-filters="sRGB" id="filter_2">
      <feFlood flood-opacity="0" result="BackgroundImageFix" />
      <feBlend mode="normal" in="SourceGraphic" in2="BackgroundImageFix" result="shape" />
      <feColorMatrix in="SourceAlpha" type="matrix" values="0 0 0 0 0 0 0 0 0 0 0 0 0 0 0 0 0 0 127 0" result="hardAlpha" />
      <feOffset dx="1" dy="0" />
      <feGaussianBlur stdDeviation="1" />
      <feComposite in2="hardAlpha" operator="arithmetic" k2="-1" k3="1" />
      <feColorMatrix type="matrix" values="0 0 0 0 0.39215687 0 0 0 0 0.39215687 0 0 0 0 0.39215687 0 0 0 0.4 0" />
      <feBlend mode="normal" in2="shape" result="effect0_innerShadow" />
    </filter>
    <filter filterUnits="userSpaceOnUse" color-interpolation-filters="sRGB" id="filter_3">
      <feFlood flood-opacity="0" result="BackgroundImageFix" />
      <feColorMatrix in="SourceAlpha" type="matrix" values="0 0 0 0 0 0 0 0 0 0 0 0 0 0 0 0 0 0 127 0" />
      <feOffset dx="0" dy="1" />
      <feGaussianBlur stdDeviation="1" />
      <feColorMatrix type="matrix" values="0 0 0 0 0.39215687 0 0 0 0 0.39215687 0 0 0 0 0.39215687 0 0 0 0.49803922 0" />
      <feBlend mode="normal" in2="BackgroundImageFix" result="effect0_dropShadow" />
      <feBlend mode="normal" in="SourceGraphic" in2="effect0_dropShadow" result="shape" />
    </filter>
    <filter filterUnits="userSpaceOnUse" color-interpolation-filters="sRGB" id="filter_4">
      <feFlood flood-opacity="0" result="BackgroundImageFix" />
      <feColorMatrix in="SourceAlpha" type="matrix" values="0 0 0 0 0 0 0 0 0 0 0 0 0 0 0 0 0 0 127 0" />
      <feOffset dx="0" dy="1" />
      <feGaussianBlur stdDeviation="1" />
      <feColorMatrix type="matrix" values="0 0 0 0 0.39215687 0 0 0 0 0.39215687 0 0 0 0 0.39215687 0 0 0 0.29803923 0" />
      <feBlend mode="normal" in2="BackgroundImageFix" result="effect0_dropShadow" />
      <feBlend mode="normal" in="SourceGraphic" in2="effect0_dropShadow" result="shape" />
    </filter>
    <path d="M2.12883 0.714876C2.12883 0.714876 3.95726 -0.148908 8.28947 0.0225127C12.6219 0.193933 19.4584 1.40056 19.4584 1.40056L18.9974 16.3604C18.9974 16.3604 12.2253 14.9223 7.89293 14.7509C3.56053 14.5795 1.66779 15.6747 1.66779 15.6747L2.12883 0.714876Z" id="path_1" />
    <path d="M18.9944 1.40059C18.9944 1.40059 20.7652 0.394392 25.0974 0.222971C29.4298 0.0515509 36.324 0.714906 36.324 0.714906L36.7851 15.6747C36.7851 15.6747 29.9408 14.7754 25.6084 14.9469C21.276 15.1182 19.4555 16.3604 19.4555 16.3604L18.9944 1.40059Z" id="path_2" />
  </defs>
  <g id="Group-10" transform="translate(0.25 0.25)">
    <g fill="#242424" stroke="none" id="Bible-Notify" transform="translate(49.598633 0)">
      <path d="M202.476 45.7896L202.476 29.1373L199.394 29.1373L199.394 25.0795L202.476 25.0795L202.476 23.3185Q202.476 19.8349 204.476 17.9113Q206.476 15.9877 210.075 15.9877Q211.223 15.9877 212.888 16.3705L212.831 20.658Q212.142 20.4857 211.146 20.4857Q208.027 20.4857 208.027 23.4142L208.027 25.0795L212.142 25.0795L212.142 29.1373L208.027 29.1373L208.027 45.7896L202.476 45.7896ZM78.5074 43.3875Q80.632 40.6025 80.632 35.6259L80.632 35.3197Q80.632 30.2666 78.4787 27.4816Q76.3254 24.6966 72.5355 24.6966Q69.4156 24.6966 67.5016 26.9361L67.5016 16.3896L61.9699 16.3896L61.9699 45.7896L66.9465 45.7896L67.1953 43.5884Q69.2051 46.1724 72.5738 46.1724Q76.3828 46.1724 78.5074 43.3875ZM90.177 45.7896L84.6262 45.7896L84.6262 16.3896L90.177 16.3896L90.177 45.7896ZM51.2383 19.7201Q51.2383 18.4759 52.0709 17.672Q52.9035 16.8681 54.3391 16.8681Q55.7555 16.8681 56.5977 17.672Q57.4398 18.4759 57.4398 19.7201Q57.4398 20.9834 56.5881 21.7873Q55.7363 22.5912 54.3391 22.5912Q52.9418 22.5912 52.09 21.7873Q51.2383 20.9834 51.2383 19.7201ZM191.065 17.672Q190.232 18.4759 190.232 19.7201Q190.232 20.9834 191.084 21.7873Q191.936 22.5912 193.333 22.5912Q194.73 22.5912 195.582 21.7873Q196.434 20.9834 196.434 19.7201Q196.434 18.4759 195.591 17.672Q194.749 16.8681 193.333 16.8681Q191.897 16.8681 191.065 17.672ZM26.3234 45.7896L26.3234 17.9209L36.0852 17.9209Q41.1574 17.9209 43.7797 19.8636Q46.402 21.8064 46.402 25.558Q46.402 27.606 45.3492 29.166Q44.2965 30.7259 42.4207 31.4533Q44.5645 31.9892 45.799 33.6162Q47.0336 35.2431 47.0336 37.5974Q47.0336 41.617 44.4688 43.6841Q41.9039 45.7513 37.157 45.7896L26.3234 45.7896ZM149.309 45.7896L143.567 45.7896L132.389 27.4529L132.389 45.7896L126.646 45.7896L126.646 17.9209L132.389 17.9209L143.586 36.2959L143.586 17.9209L149.309 17.9209L149.309 45.7896ZM183.348 19.9881L183.348 25.0795L186.889 25.0795L186.889 29.1373L183.348 29.1373L183.348 39.4732Q183.348 40.6216 183.788 41.1193Q184.228 41.617 185.472 41.617Q186.391 41.617 187.099 41.483L187.099 45.6748Q185.472 46.1724 183.75 46.1724Q177.931 46.1724 177.816 40.2963L177.816 29.1373L174.792 29.1373L174.792 25.0795L177.816 25.0795L177.816 19.9881L183.348 19.9881ZM32.0656 29.5966L36.3148 29.5966Q40.6598 29.5201 40.6598 26.1322Q40.6598 24.2373 39.5592 23.4047Q38.4586 22.572 36.0852 22.572L32.0656 22.572L32.0656 29.5966ZM97.1475 43.3779Q100.009 46.1724 104.564 46.1724Q107.148 46.1724 109.273 45.1867Q111.398 44.2009 112.642 42.44L109.924 39.3966Q108.125 41.7127 104.928 41.7127Q102.861 41.7127 101.512 40.4877Q100.162 39.2627 99.8941 37.2338L113.082 37.2338L113.082 34.9752Q113.082 30.056 110.642 27.3763Q108.201 24.6966 103.952 24.6966Q101.119 24.6966 98.9084 26.0269Q96.6977 27.3572 95.4918 29.8168Q94.2859 32.2763 94.2859 35.3963L94.2859 35.9322Q94.2859 40.5834 97.1475 43.3779ZM154.586 29.7498Q153.399 32.1615 153.399 35.2431L153.399 35.492Q153.399 40.4302 156.069 43.3013Q158.739 46.1724 163.218 46.1724Q167.697 46.1724 170.357 43.2918Q173.018 40.4111 173.018 35.6451L172.98 34.2287Q172.673 29.8263 170.022 27.2615Q167.371 24.6966 163.18 24.6966Q160.232 24.6966 158.002 26.0173Q155.772 27.3381 154.586 29.7498ZM51.5637 45.7896L51.5637 25.0795L57.1145 25.0795L57.1145 45.7896L51.5637 45.7896ZM190.557 25.0795L190.557 45.7896L196.108 45.7896L196.108 25.0795L190.557 25.0795ZM226.874 25.0795L223.046 37.9611L219.198 25.0795L213.246 25.0795L220.5 45.847L219.849 47.5506Q219.409 48.6607 218.634 49.1392Q217.859 49.6177 216.289 49.6177L215.447 49.5986L215.447 53.7904Q216.691 54.1541 217.897 54.1541Q222.165 54.1541 224.022 50.0963L224.481 49.0052L232.807 25.0795L226.874 25.0795ZM101.263 30.2715Q102.287 29.1564 103.933 29.1564Q105.694 29.1564 106.651 30.1658Q107.608 31.1751 107.646 33.0207L107.646 33.4631L99.9516 33.4631Q100.239 31.3866 101.263 30.2715ZM160.041 40.1503Q158.93 38.588 158.93 35.6358Q158.93 32.3194 160.041 30.7379Q161.151 29.1564 163.18 29.1564Q165.228 29.1564 166.357 30.7475Q167.486 32.3385 167.486 35.2333Q167.486 38.6262 166.357 40.1694Q165.228 41.7127 163.218 41.7127Q161.151 41.7127 160.041 40.1503ZM74.1051 30.6398Q75.1004 32.0849 75.1004 35.224Q75.1004 37.808 74.6984 39.0713Q73.8563 41.7127 71.1766 41.7127Q68.516 41.7127 67.5016 39.5306L67.5016 31.3576Q68.4969 29.1947 71.1383 29.1947Q73.1098 29.1947 74.1051 30.6398ZM32.0656 33.6545L32.0656 41.1767L36.9848 41.1767Q39.0137 41.1767 40.1525 40.2101Q41.2914 39.2435 41.2914 37.54Q41.2914 33.7119 37.3293 33.6545L32.0656 33.6545Z" />
    </g>
    <path d="M6.999 2.30651L52.0962 2.30651Q52.2681 2.30651 52.4397 2.31495Q52.6113 2.32338 52.7823 2.34022Q52.9532 2.35706 53.1232 2.38227Q53.2932 2.40748 53.4617 2.441Q53.6302 2.47452 53.7968 2.51627Q53.9635 2.55801 54.1279 2.60789Q54.2923 2.65776 54.4541 2.71565Q54.6159 2.77353 54.7746 2.83928Q54.9334 2.90503 55.0887 2.97849Q55.244 3.05195 55.3955 3.13295Q55.5471 3.21394 55.6944 3.30227Q55.8418 3.3906 55.9847 3.48606Q56.1275 3.58151 56.2655 3.68387Q56.4035 3.78622 56.5364 3.89521Q56.6692 4.00421 56.7965 4.1196Q56.9238 4.23498 57.0453 4.35647Q57.1668 4.47797 57.2821 4.60527Q57.3975 4.73258 57.5065 4.8654Q57.6155 4.99821 57.7179 5.13621Q57.8202 5.27422 57.9157 5.41708Q58.0111 5.55994 58.0995 5.70731Q58.1878 5.85468 58.2688 6.00621Q58.3498 6.15774 58.4233 6.31306Q58.4967 6.46838 58.5625 6.62711Q58.6282 6.78585 58.6861 6.94762Q58.744 7.10939 58.7939 7.27381Q58.8437 7.43823 58.8855 7.6049Q58.9272 7.77156 58.9608 7.94008Q58.9943 8.10859 59.0195 8.27855Q59.0447 8.4485 59.0615 8.61949Q59.0784 8.79048 59.0868 8.96209Q59.0952 9.1337 59.0952 9.30552L59.0952 54.4027Q59.0952 54.5746 59.0868 54.7462Q59.0784 54.9178 59.0615 55.0888Q59.0447 55.2598 59.0195 55.4297Q58.9943 55.5997 58.9608 55.7682Q58.9272 55.9367 58.8855 56.1034Q58.8437 56.27 58.7939 56.4344Q58.744 56.5989 58.6861 56.7606Q58.6282 56.9224 58.5625 57.0811Q58.4967 57.2399 58.4233 57.3952Q58.3498 57.5505 58.2688 57.702Q58.1878 57.8536 58.0995 58.0009Q58.0111 58.1483 57.9157 58.2912Q57.8202 58.434 57.7179 58.572Q57.6155 58.71 57.5065 58.8429Q57.3975 58.9757 57.2821 59.103Q57.1668 59.2303 57.0453 59.3518Q56.9238 59.4733 56.7965 59.5887Q56.6692 59.704 56.5364 59.813Q56.4035 59.922 56.2655 60.0244Q56.1275 60.1267 55.9847 60.2222Q55.8418 60.3177 55.6944 60.406Q55.5471 60.4943 55.3955 60.5753Q55.244 60.6563 55.0887 60.7298Q54.9334 60.8032 54.7746 60.869Q54.6159 60.9347 54.4541 60.9926Q54.2923 61.0505 54.1279 61.1004Q53.9635 61.1502 53.7968 61.192Q53.6302 61.2337 53.4617 61.2673Q53.2932 61.3008 53.1232 61.326Q52.9532 61.3512 52.7823 61.368Q52.6113 61.3849 52.4397 61.3933Q52.2681 61.4017 52.0962 61.4017L6.999 61.4017Q6.82718 61.4017 6.65557 61.3933Q6.48397 61.3849 6.31298 61.368Q6.14199 61.3512 5.97203 61.326Q5.80208 61.3008 5.63356 61.2673Q5.46505 61.2337 5.29838 61.192Q5.13171 61.1502 4.9673 61.1004Q4.80288 61.0505 4.64111 60.9926Q4.47933 60.9347 4.3206 60.869Q4.16186 60.8032 4.00654 60.7298Q3.85122 60.6563 3.69969 60.5753Q3.54817 60.4943 3.40079 60.406Q3.25342 60.3177 3.11056 60.2222Q2.9677 60.1267 2.8297 60.0244Q2.6917 59.922 2.55888 59.813Q2.42607 59.704 2.29876 59.5887Q2.17145 59.4733 2.04996 59.3518Q1.92847 59.2303 1.81308 59.103Q1.6977 58.9757 1.5887 58.8429Q1.4797 58.71 1.37735 58.572Q1.275 58.434 1.17954 58.2912Q1.08409 58.1483 0.995757 58.0009Q0.907426 57.8536 0.826433 57.702Q0.74544 57.5505 0.671979 57.3952Q0.598518 57.2399 0.532767 57.0811Q0.467016 56.9224 0.409133 56.7606Q0.35125 56.5989 0.301375 56.4344Q0.251499 56.27 0.209751 56.1034Q0.168003 55.9367 0.134484 55.7682Q0.100964 55.5997 0.0757536 55.4297Q0.050543 55.2598 0.0337021 55.0888Q0.0168612 54.9178 0.0084306 54.7462Q0 54.5746 0 54.4027L0 9.30552Q0 9.1337 0.0084306 8.96209Q0.0168612 8.79048 0.0337021 8.61949Q0.050543 8.4485 0.0757536 8.27855Q0.100964 8.10859 0.134484 7.94008Q0.168003 7.77156 0.209751 7.6049Q0.251499 7.43823 0.301375 7.27381Q0.35125 7.10939 0.409133 6.94762Q0.467016 6.78585 0.532767 6.62711Q0.598518 6.46838 0.671979 6.31306Q0.74544 6.15774 0.826433 6.00621Q0.907426 5.85468 0.995757 5.70731Q1.08409 5.55994 1.17954 5.41708Q1.275 5.27422 1.37735 5.13621Q1.4797 4.99821 1.5887 4.8654Q1.6977 4.73258 1.81308 4.60527Q1.92847 4.47797 2.04996 4.35647Q2.17145 4.23498 2.29876 4.1196Q2.42607 4.00421 2.55888 3.89521Q2.6917 3.78622 2.8297 3.68387Q2.9677 3.58151 3.11056 3.48606Q3.25342 3.3906 3.40079 3.30227Q3.54817 3.21394 3.69969 3.13295Q3.85122 3.05195 4.00654 2.97849Q4.16186 2.90503 4.3206 2.83928Q4.47933 2.77353 4.64111 2.71565Q4.80288 2.65776 4.9673 2.60789Q5.13171 2.55801 5.29838 2.51627Q5.46505 2.47452 5.63356 2.441Q5.80208 2.40748 5.97203 2.38227Q6.14199 2.35706 6.31298 2.34022Q6.48397 2.32338 6.65558 2.31495Q6.82718 2.30651 6.999 2.30651Z" id="Rectangle-11" fill="#82DB78" fill-rule="evenodd" stroke="none" />
    <g filter="url(#filter_3)">
      <g id="Group-9" transform="translate(9.931976 33.592228)">
        <path d="M0.582365 1.29691L18.7017 2.03152L18.2518 16.9914C18.2518 16.9914 11.0161 16.4284 6.44051 16.4284C1.8649 16.4284 4.80274e-07 16.9913 4.80274e-07 16.9913L0.582365 1.29691Z" id="Rectangle-15" fill="#242424" fill-rule="evenodd" stroke="#242424" stroke-width="0.25" stroke-linecap="round" stroke-linejoin="round" />
        <path d="M19.7463 2.04219L27.674 1.72078L37.8657 1.30757L38.4118 17.6125C38.4118 17.6125 33.2004 16.3892 28.6705 16.5728C24.1407 16.7565 20.1963 17.002 20.1963 17.002L19.7463 2.04219Z" id="Rectangle-15-Copy" fill="#242424" fill-rule="evenodd" stroke="#242424" stroke-width="0.25" stroke-linejoin="round" />
        <g id="Rectangle-12">
          <use stroke="none" fill="#FFFFFF" xlink:href="#path_1" fill-rule="evenodd" filter="url(#filter_1)" />
          <use xlink:href="#path_1" fill="none" stroke="#242424" stroke-width="0.5" />
        </g>
        <g id="Rectangle-12-Copy">
          <use stroke="none" fill="#FFFFFF" xlink:href="#path_2" fill-rule="evenodd" filter="url(#filter_2)" />
          <use xlink:href="#path_2" fill="none" stroke="#242424" stroke-width="0.5" />
        </g>
        <path d="M18.3106 16.4635C18.3106 16.4635 18.7129 16.5861 19.1412 16.5597C19.5695 16.5333 20.0238 16.3579 20.0238 16.3579L20.4756 20.3605L19.2266 19.4593L18.0582 20.3605L18.3106 16.4635Z" id="Rectangle-13" fill="#A34444" fill-rule="evenodd" stroke="#242424" stroke-width="0.25" stroke-linejoin="round" />
      </g>
    </g>
    <path d="M14.4072 15.7147L39.0225 15.7147Q39.1209 15.7147 39.2174 15.7339Q39.3139 15.7531 39.4048 15.7907Q39.4957 15.8284 39.5775 15.883Q39.6593 15.9377 39.7289 16.0073Q39.7985 16.0768 39.8531 16.1587Q39.9078 16.2405 39.9454 16.3314Q39.9831 16.4223 40.0023 16.5188Q40.0215 16.6153 40.0215 16.7137L40.0215 22.6206Q40.0215 22.719 40.0023 22.8155Q39.9831 22.912 39.9454 23.0029Q39.9078 23.0938 39.8531 23.1756Q39.7985 23.2575 39.7289 23.327Q39.6593 23.3966 39.5775 23.4513Q39.4957 23.5059 39.4048 23.5436Q39.3139 23.5812 39.2174 23.6004Q39.1209 23.6196 39.0225 23.6196L14.4072 23.6196Q14.3088 23.6196 14.2123 23.6004Q14.1158 23.5812 14.0249 23.5436Q13.934 23.5059 13.8522 23.4513Q13.7703 23.3966 13.7008 23.327Q13.6312 23.2575 13.5765 23.1756Q13.5219 23.0938 13.4842 23.0029Q13.4466 22.912 13.4274 22.8155Q13.4082 22.719 13.4082 22.6206L13.4082 16.7137Q13.4082 16.6153 13.4274 16.5188Q13.4466 16.4223 13.4842 16.3314Q13.5219 16.2405 13.5765 16.1587Q13.6312 16.0768 13.7008 16.0073Q13.7703 15.9377 13.8522 15.883Q13.934 15.8284 14.0249 15.7907Q14.1158 15.7531 14.2123 15.7339Q14.3088 15.7147 14.4072 15.7147Z" id="Rectangle-12" fill="#FFFFFF" fill-rule="evenodd" stroke="#242424" stroke-width="0.5" filter="url(#filter_4)" />
    <path d="M15.8911 18.8513C15.8911 17.9418 16.6285 17.2045 17.538 17.2045C18.4476 17.2045 19.1849 17.9418 19.1849 18.8513C19.1849 19.7609 18.4476 20.4982 17.538 20.4982C16.6285 20.4982 15.8911 19.7609 15.8911 18.8513Z" id="Ellipse" fill="#82DB78" fill-rule="evenodd" stroke="#000000" stroke-width="0.5" />
    <path d="M20.8571 18.8564L36.6671 18.8564" id="Line-2" fill="#5ED885" fill-rule="evenodd" stroke="#242424" stroke-width="0.5" stroke-linecap="round" />
    <path d="M20.3605 20.8428L34.853 20.8428" id="Line-2-Copy" fill="#5ED885" fill-rule="evenodd" stroke="#242424" stroke-width="0.5" stroke-linecap="round" />
    <path d="M26.8163 8.7623L42.8803 8.7623L42.8803 13.5338L26.8163 13.5338L26.8163 8.7623Z" id="Rectangle-16-Copy-2" fill="#FFFFFF" fill-rule="evenodd" stroke="#242424" stroke-width="0.25" filter="url(#filter_4)" />
    <path d="M28.3061 11.2462C28.3061 10.6971 28.7512 10.2521 29.3002 10.2521C29.8492 10.2521 30.2942 10.6971 30.2942 11.2462C30.2942 11.7952 29.8492 12.2402 29.3002 12.2402C28.7512 12.2402 28.3061 11.7952 28.3061 11.2462Z" id="Ellipse-Copy-2" fill="#82DB78" fill-rule="evenodd" stroke="#242424" stroke-width="0.25" />
    <path d="M31.2857 10.6497L40.8287 10.6497" id="Line-2-Copy-4" fill="#5ED885" fill-rule="evenodd" stroke="#242424" stroke-width="0.25" stroke-linecap="round" />
    <path d="M31.2857 12.1395L40.0334 12.1395" id="Line-2-Copy-5" fill="#5ED885" fill-rule="evenodd" stroke="#242424" stroke-width="0.25" stroke-linecap="round" />
    <path d="M26.8221 25.15L46.5029 25.15Q46.6013 25.15 46.6978 25.1692Q46.7943 25.1884 46.8852 25.2261Q46.9761 25.2637 47.0579 25.3184Q47.1397 25.3731 47.2093 25.4426Q47.2789 25.5122 47.3335 25.594Q47.3882 25.6758 47.4258 25.7667Q47.4635 25.8576 47.4827 25.9541Q47.5019 26.0506 47.5019 26.149L47.5019 30.5903Q47.5019 30.6887 47.4827 30.7852Q47.4635 30.8817 47.4258 30.9726Q47.3882 31.0635 47.3335 31.1453Q47.2789 31.2271 47.2093 31.2967Q47.1397 31.3663 47.0579 31.4209Q46.9761 31.4756 46.8852 31.5133Q46.7943 31.5509 46.6978 31.5701Q46.6013 31.5893 46.5029 31.5893L26.8221 31.5893Q26.7237 31.5893 26.6272 31.5701Q26.5307 31.5509 26.4398 31.5133Q26.3489 31.4756 26.2671 31.4209Q26.1853 31.3663 26.1157 31.2967Q26.0461 31.2271 25.9915 31.1453Q25.9368 31.0635 25.8992 30.9726Q25.8615 30.8817 25.8423 30.7852Q25.8231 30.6887 25.8231 30.5903L25.8231 26.149Q25.8231 26.0506 25.8423 25.9541Q25.8615 25.8576 25.8992 25.7667Q25.9368 25.6758 25.9915 25.594Q26.0461 25.5122 26.1157 25.4426Q26.1853 25.3731 26.2671 25.3184Q26.3489 25.2637 26.4398 25.2261Q26.5307 25.1884 26.6272 25.1692Q26.7237 25.15 26.8221 25.15Z" id="Rectangle-16-Copy-3" fill="#FFFFFF" fill-rule="evenodd" stroke="#242424" stroke-width="0.5" filter="url(#filter_4)" />
    <path d="M27.8095 27.9814C27.8095 27.2405 28.4101 26.6399 29.151 26.6399C29.8919 26.6399 30.4925 27.2405 30.4925 27.9814C30.4925 28.7223 29.8919 29.3229 29.151 29.3229C28.4101 29.3229 27.8095 28.7223 27.8095 27.9814Z" id="Ellipse-Copy-3" fill="#82DB78" fill-rule="evenodd" stroke="#242424" stroke-width="0.5" />
    <path d="M31.7823 27.6731L44.6608 27.6731" id="Line-2-Copy-6" fill="#82DB78" fill-rule="evenodd" stroke="#242424" stroke-width="0.5" stroke-linecap="round" />
    <path d="M31.7823 29.1628L43.5876 29.1628" id="Line-2-Copy-7" fill="#82DB78" fill-rule="evenodd" stroke="#242424" stroke-width="0.5" stroke-linecap="round" />
  </g>
</svg>