<?xml version="1.0" encoding="utf-8"?>
<svg width="380px" height="250px" viewBox="0 0 380 250" version="1.1" xmlns:xlink="http://www.w3.org/1999/xlink" xmlns="http://www.w3.org/2000/svg">
  <desc>Created with Lunacy</desc>
  <g id="Group-2">
    <path d="M215.2 0.107327L354.664 21.4433Q354.736 21.4543 354.807 21.4705Q354.878 21.4868 354.947 21.5081Q355.017 21.5294 355.085 21.5558Q355.153 21.5821 355.218 21.6133Q355.284 21.6445 355.348 21.6804Q355.411 21.7163 355.471 21.7567Q355.532 21.7971 355.589 21.8419Q355.647 21.8866 355.701 21.9353Q355.755 21.9841 355.805 22.0367Q355.856 22.0893 355.902 22.1454Q355.948 22.2014 355.991 22.2608Q356.033 22.3201 356.071 22.3823Q356.108 22.4446 356.141 22.5094Q356.174 22.5742 356.203 22.6412Q356.231 22.7083 356.255 22.7772Q356.278 22.8462 356.296 22.9166Q356.315 22.9871 356.328 23.0587Q356.341 23.1303 356.349 23.2026Q356.357 23.275 356.359 23.3478Q356.362 23.4205 356.359 23.4932Q356.356 23.566 356.348 23.6383Q356.341 23.7107 356.327 23.7823Q356.314 23.8539 356.296 23.9243Q356.277 23.9947 356.254 24.0637Q356.23 24.1326 356.202 24.1996Q356.174 24.2666 356.14 24.3314Q356.107 24.3962 356.069 24.4583Q356.031 24.5205 355.989 24.5798Q355.947 24.6391 355.901 24.6951Q355.854 24.7512 355.804 24.8037Q355.753 24.8562 355.699 24.9049Q355.645 24.9536 355.588 24.9982L172.815 166.915Q172.637 167.054 172.432 167.149Q172.228 167.244 172.008 167.291Q171.787 167.338 171.562 167.335Q171.337 167.332 171.118 167.279L4.80682 126.984Q4.73474 126.966 4.66415 126.944Q4.59357 126.921 4.52486 126.893Q4.45615 126.865 4.3897 126.832Q4.32325 126.799 4.25943 126.761Q4.1956 126.724 4.13475 126.681Q4.0739 126.639 4.01636 126.592Q3.95882 126.545 3.9049 126.494Q3.85098 126.443 3.80099 126.388Q3.75099 126.334 3.7052 126.275Q3.6594 126.217 3.61805 126.155Q3.5767 126.094 3.54003 126.029Q3.50335 125.965 3.47156 125.898Q3.43976 125.831 3.41302 125.762Q3.38628 125.693 3.36473 125.622Q3.34319 125.551 3.32696 125.478Q3.31074 125.406 3.29992 125.333Q3.2891 125.259 3.28375 125.185Q3.2784 125.111 3.27854 125.037Q3.27869 124.963 3.28433 124.889Q3.28997 124.815 3.30107 124.742Q3.31218 124.668 3.32868 124.596Q3.34519 124.524 3.36701 124.453Q3.38883 124.382 3.41584 124.313Q3.44285 124.244 3.47491 124.177Q3.50697 124.11 3.54389 124.046Q3.58082 123.981 3.6224 123.92Q3.66399 123.859 3.71002 123.8Q3.75604 123.742 3.80625 123.688Q3.85646 123.633 3.91057 123.582Q3.96469 123.532 4.02241 123.485Q4.08013 123.439 4.14115 123.396Q4.20217 123.354 4.26614 123.317L213.887 0.359078Q214.184 0.184866 214.522 0.12006Q214.86 0.0552553 215.2 0.107326L215.2 0.107327Z" transform="matrix(0.9945219 0.1045285 -0.1045285 0.9945219 21.72173 45.63647)" id="Rectangle-14-Copy-5" fill="#8A8888" fill-opacity="0.321568638" stroke="none" />
    <path d="M106.112 0L121.271 6.06351L21.2225 68.2151L15.9169 60.6357L0 62.1516L106.112 0Z" transform="matrix(0.9945219 0.1045285 -0.1045285 0.9945219 13.85846 127.4033)" id="Rectangle-15-Copy" fill="#8A8888" fill-opacity="0.321568638" stroke="none" />
    <path d="M209.271 3.75428L207.533 33.314Q207.519 33.5492 207.451 33.7746Q207.383 34.0001 207.264 34.2036Q207.146 34.4071 206.983 34.5774Q206.82 34.7477 206.623 34.8756L7.09051 163.834Q7.03698 163.869 6.98136 163.9Q6.92573 163.931 6.86824 163.958Q6.81075 163.986 6.75162 164.01Q6.69249 164.033 6.63197 164.053Q6.57144 164.073 6.50977 164.09Q6.4481 164.106 6.38552 164.118Q6.32295 164.13 6.25974 164.138Q6.19652 164.146 6.13291 164.15Q6.06931 164.154 6.00557 164.154Q5.94184 164.154 5.87823 164.15Q5.81463 164.146 5.75141 164.138Q5.68819 164.13 5.62562 164.118Q5.56304 164.106 5.50137 164.09Q5.43969 164.074 5.37916 164.054Q5.31864 164.034 5.25951 164.01Q5.20038 163.986 5.14288 163.958Q5.08538 163.931 5.02976 163.9Q4.97413 163.869 4.9206 163.834Q4.86706 163.8 4.81584 163.762Q4.76462 163.724 4.71592 163.683Q4.66722 163.642 4.62124 163.597Q4.57525 163.553 4.53218 163.506Q4.4891 163.459 4.4491 163.41Q4.4091 163.36 4.37235 163.308Q4.33559 163.256 4.30223 163.202Q4.26886 163.147 4.23902 163.091Q4.20919 163.035 4.183 162.977Q4.15681 162.918 4.13437 162.859Q4.11194 162.799 4.09335 162.738Q4.07476 162.677 4.0601 162.615Q4.04543 162.553 4.03474 162.49Q4.02406 162.428 4.01739 162.364L0.134017 125.417Q0.119097 125.275 0.124498 125.132Q0.129899 124.99 0.155514 124.849Q0.181128 124.709 0.226434 124.573Q0.271741 124.438 0.335822 124.31Q0.399902 124.183 0.481456 124.066Q0.563009 123.949 0.660381 123.844Q0.757753 123.74 0.868967 123.65Q0.980181 123.561 1.10298 123.488L206.256 1.91723Q206.314 1.88275 206.375 1.85228Q206.435 1.82182 206.498 1.7955Q206.56 1.76918 206.624 1.74714Q206.688 1.72509 206.753 1.70742Q206.818 1.68975 206.885 1.67653Q206.951 1.6633 207.018 1.6546Q207.085 1.64589 207.153 1.64173Q207.22 1.63758 207.288 1.638Q207.355 1.63841 207.423 1.6434Q207.49 1.64839 207.557 1.65792Q207.624 1.66746 207.69 1.6815Q207.756 1.69553 207.822 1.71401Q207.887 1.73249 207.95 1.75532Q208.014 1.77815 208.076 1.80524Q208.138 1.83232 208.198 1.86353Q208.258 1.89474 208.316 1.92993Q208.373 1.96513 208.429 2.00414Q208.484 2.04316 208.536 2.08582Q208.589 2.12848 208.638 2.17459Q208.688 2.2207 208.734 2.27005Q208.78 2.3194 208.823 2.37176Q208.866 2.42413 208.905 2.47926Q208.944 2.5344 208.98 2.59205Q209.015 2.64971 209.046 2.70962Q209.078 2.76954 209.105 2.83143Q209.132 2.89333 209.155 2.95693Q209.178 3.02053 209.197 3.08554Q209.215 3.15054 209.23 3.21666Q209.244 3.28278 209.254 3.34971Q209.263 3.41664 209.268 3.48408Q209.274 3.55151 209.274 3.61914Q209.275 3.68677 209.271 3.75428L209.271 3.75428Z" transform="matrix(0.9945219 0.1045285 -0.1045285 0.9945219 22.82965 0.7014132)" id="Rectangle-14-Copy-2" fill="#000000" stroke="none" />
    <path d="M215.246 0.150348L349.645 27.1762Q349.715 27.1903 349.784 27.2094Q349.853 27.2285 349.921 27.2524Q349.988 27.2764 350.054 27.3051Q350.119 27.3338 350.182 27.3671Q350.246 27.4004 350.307 27.4382Q350.367 27.4759 350.425 27.5179Q350.483 27.56 350.538 27.606Q350.592 27.652 350.644 27.7018Q350.695 27.7517 350.743 27.805Q350.79 27.8584 350.834 27.9151Q350.878 27.9717 350.917 28.0313Q350.957 28.0909 350.992 28.1532Q351.027 28.2155 351.058 28.2801Q351.088 28.3448 351.114 28.4114Q351.14 28.4781 351.161 28.5465Q351.182 28.6148 351.199 28.6845Q351.215 28.7542 351.226 28.8248Q351.237 28.8955 351.243 28.9667Q351.249 29.038 351.25 29.1095Q351.251 29.1811 351.247 29.2525Q351.243 29.3239 351.233 29.3948Q351.224 29.4657 351.21 29.5358Q351.196 29.6059 351.176 29.6748Q351.157 29.7437 351.133 29.811Q351.109 29.8783 351.08 29.9437Q351.051 30.0092 351.017 30.0724Q350.984 30.1356 350.946 30.1962Q350.908 30.2568 350.866 30.3146Q350.824 30.3724 350.777 30.427Q350.731 30.4816 350.681 30.5328Q350.631 30.5839 350.578 30.6314Q350.524 30.6789 350.467 30.7224L172.812 166.925Q172.635 167.061 172.431 167.154Q172.228 167.248 172.009 167.294Q171.79 167.34 171.566 167.337Q171.343 167.334 171.125 167.281L4.80682 126.984Q4.73474 126.966 4.66415 126.944Q4.59356 126.921 4.52486 126.893Q4.45615 126.865 4.3897 126.832Q4.32325 126.799 4.25943 126.761Q4.1956 126.724 4.13475 126.681Q4.0739 126.639 4.01636 126.592Q3.95881 126.545 3.9049 126.494Q3.85098 126.443 3.80099 126.389Q3.75099 126.334 3.70519 126.275Q3.6594 126.217 3.61805 126.155Q3.5767 126.094 3.54002 126.029Q3.50335 125.965 3.47156 125.898Q3.43976 125.831 3.41302 125.762Q3.38628 125.693 3.36473 125.622Q3.34319 125.551 3.32696 125.478Q3.31074 125.406 3.29992 125.333Q3.2891 125.259 3.28375 125.185Q3.2784 125.111 3.27854 125.037Q3.27869 124.963 3.28433 124.889Q3.28997 124.815 3.30107 124.742Q3.31217 124.668 3.32868 124.596Q3.34519 124.524 3.36701 124.453Q3.38883 124.382 3.41584 124.313Q3.44285 124.244 3.47491 124.177Q3.50697 124.11 3.54389 124.046Q3.58081 123.981 3.6224 123.92Q3.66399 123.859 3.71002 123.8Q3.75604 123.742 3.80625 123.688Q3.85646 123.633 3.91057 123.582Q3.96468 123.532 4.02241 123.485Q4.08013 123.439 4.14115 123.396Q4.20216 123.354 4.26614 123.317L213.841 0.385859Q213.998 0.293448 214.17 0.231118Q214.342 0.168788 214.522 0.138603Q214.702 0.108419 214.885 0.111379Q215.067 0.114339 215.246 0.150346L215.246 0.150348Z" transform="matrix(0.9945219 0.1045285 -0.1045285 0.9945219 17.85552 35.48339)" id="Rectangle-14-Copy" fill="#333333" stroke="none" />
    <path d="M106.112 0L121.271 6.06351L21.2225 68.2151L15.9169 60.6357L0 62.1516L106.112 0Z" transform="matrix(0.9945219 0.1045285 -0.1045285 0.9945219 7.13043 113.7602)" id="Rectangle-15" fill="#7F4949" stroke="none" />
    <path d="M177.914 0L178.701 36.499L3.56538 168.462L0 134.542L177.914 0Z" transform="matrix(0.9945219 0.1045285 -0.1045285 0.9945219 183.0855 47.20385)" id="Rectangle-14-Copy-3" fill="#E9E9E9" stroke="none" />
    <path d="M161.977 40.1345L165.384 72.5479L4.31905 33.8416C4.31905 33.8416 6.15491 27.7422 5.07515 19.2818C3.99539 10.8214 0 0 0 0L161.977 40.1345Z" transform="matrix(0.9945219 0.1045285 -0.1045285 0.9945219 12.12701 125.6785)" id="Rectangle-14-Copy-4" fill="#DFDFDF" stroke="none" />
    <path d="M215.246 0.150345L349.645 27.1762Q349.715 27.1903 349.784 27.2094Q349.853 27.2284 349.921 27.2524Q349.988 27.2764 350.054 27.3051Q350.119 27.3338 350.182 27.3671Q350.246 27.4004 350.307 27.4382Q350.367 27.4759 350.425 27.5179Q350.483 27.5599 350.538 27.606Q350.593 27.652 350.644 27.7018Q350.695 27.7517 350.743 27.805Q350.79 27.8584 350.834 27.915Q350.878 27.9717 350.917 28.0313Q350.957 28.0909 350.992 28.1532Q351.027 28.2155 351.058 28.2801Q351.088 28.3448 351.114 28.4114Q351.14 28.4781 351.161 28.5464Q351.182 28.6148 351.199 28.6845Q351.215 28.7542 351.226 28.8248Q351.237 28.8955 351.243 28.9667Q351.249 29.038 351.25 29.1095Q351.251 29.1811 351.247 29.2525Q351.243 29.3239 351.233 29.3948Q351.224 29.4657 351.21 29.5358Q351.196 29.6059 351.176 29.6748Q351.157 29.7436 351.133 29.811Q351.109 29.8783 351.08 29.9437Q351.051 30.0092 351.017 30.0723Q350.984 30.1355 350.946 30.1962Q350.908 30.2568 350.866 30.3146Q350.824 30.3724 350.777 30.427Q350.731 30.4816 350.681 30.5328Q350.631 30.5839 350.578 30.6314Q350.524 30.6789 350.467 30.7224L172.812 166.925Q172.635 167.061 172.431 167.154Q172.228 167.248 172.009 167.294Q171.79 167.34 171.566 167.337Q171.343 167.334 171.125 167.281L4.80682 126.984Q4.73474 126.966 4.66415 126.944Q4.59356 126.921 4.52486 126.893Q4.45615 126.865 4.3897 126.832Q4.32325 126.799 4.25943 126.761Q4.1956 126.724 4.13475 126.681Q4.0739 126.639 4.01636 126.592Q3.95881 126.545 3.9049 126.494Q3.85098 126.443 3.80099 126.389Q3.75099 126.334 3.70519 126.275Q3.6594 126.217 3.61805 126.155Q3.5767 126.094 3.54003 126.029Q3.50335 125.965 3.47156 125.898Q3.43976 125.831 3.41302 125.762Q3.38628 125.693 3.36473 125.622Q3.34319 125.551 3.32696 125.478Q3.31074 125.406 3.29992 125.333Q3.2891 125.259 3.28375 125.185Q3.2784 125.111 3.27854 125.037Q3.27869 124.963 3.28433 124.889Q3.28997 124.815 3.30107 124.742Q3.31217 124.668 3.32868 124.596Q3.34519 124.524 3.36701 124.453Q3.38883 124.382 3.41584 124.313Q3.44285 124.244 3.47491 124.177Q3.50697 124.11 3.54389 124.046Q3.58081 123.981 3.6224 123.92Q3.66399 123.859 3.71002 123.8Q3.75604 123.742 3.80625 123.688Q3.85646 123.633 3.91057 123.582Q3.96468 123.532 4.02241 123.485Q4.08013 123.439 4.14115 123.396Q4.20216 123.354 4.26614 123.317L213.841 0.385858Q213.999 0.293447 214.17 0.231118Q214.342 0.168788 214.522 0.138603Q214.702 0.108419 214.885 0.111379Q215.067 0.114339 215.246 0.150346L215.246 0.150345Z" transform="matrix(0.9945219 0.1045285 -0.1045285 0.9945219 17.50933 -3.814697E-06)" id="Rectangle-14" fill="#393939" stroke="none" />
  </g>
</svg>