<?xml version="1.0" encoding="utf-8"?>
<svg viewBox="0 0 24 24" version="1.1" xmlns:xlink="http://www.w3.org/1999/xlink" xmlns="http://www.w3.org/2000/svg">
  <g id="Group">
    <path d="M0 12C0 5.37258 5.37258 0 12 0C18.6274 0 24 5.37258 24 12C24 18.6274 18.6274 24 12 24C5.37258 24 0 18.6274 0 12Z" id="Ellipse-Copy" fill="#82DB78" fill-rule="evenodd" stroke="none" />
    <path d="M3.34285 0C3.7421 0 4.08328 0.139738 4.36638 0.419215C4.64949 0.698692 4.79104 1.04169 4.79104 1.44819C4.79104 1.84745 4.64949 2.18681 4.36638 2.46628C4.08328 2.74576 3.7421 2.8855 3.34285 2.8855C2.94359 2.8855 2.60242 2.74576 2.31931 2.46628C2.03621 2.18681 1.89465 1.84745 1.89465 1.44819C1.89465 1.04169 2.03621 0.698692 2.31931 0.419215C2.60242 0.139738 2.94359 0 3.34285 0L3.34285 0ZM0 16.235L1.76397 6.31542L0.217773 6.31542L0.598877 4.6059L4.15947 4.6059L2.10151 16.235L0 16.235Z" transform="translate(10.458374 3.8409424)" id="i" fill="#FFFFFF" stroke="none" />
  </g>
</svg>